<?xml version="1.0" encoding="UTF-8" standalone="no"?>
<!-- Created with Inkscape (http://www.inkscape.org/) -->

<svg
   xmlns:dc="http://purl.org/dc/elements/1.1/"
   xmlns:cc="http://creativecommons.org/ns#"
   xmlns:rdf="http://www.w3.org/1999/02/22-rdf-syntax-ns#"
   xmlns:svg="http://www.w3.org/2000/svg"
   xmlns="http://www.w3.org/2000/svg"
   xmlns:xlink="http://www.w3.org/1999/xlink"
   xmlns:sodipodi="http://sodipodi.sourceforge.net/DTD/sodipodi-0.dtd"
   xmlns:inkscape="http://www.inkscape.org/namespaces/inkscape"
   width="121.01845mm"
   height="121.01845mm"
   viewBox="0 0 121.01845 121.01845"
   version="1.1"
   id="svg8"
   inkscape:version="0.92.4 (5da689c313, 2019-01-14)"
   sodipodi:docname="ubc.svg">
  <defs
     id="defs2">
    <marker
       inkscape:stockid="DotM"
       orient="auto"
       refY="0"
       refX="0"
       id="marker10631"
       style="overflow:visible"
       inkscape:isstock="true">
      <path
         id="path10629"
         d="m -2.5,-1 c 0,2.76 -2.24,5 -5,5 -2.76,0 -5,-2.24 -5,-5 0,-2.76 2.24,-5 5,-5 2.76,0 5,2.24 5,5 z"
         style="fill:#ffffff;fill-opacity:1;fill-rule:evenodd;stroke:#ffffff;stroke-width:1.00000003pt;stroke-opacity:1"
         transform="matrix(0.4,0,0,0.4,2.96,0.4)"
         inkscape:connector-curvature="0" />
    </marker>
    <marker
       inkscape:isstock="true"
       style="overflow:visible"
       id="marker10437"
       refX="0"
       refY="0"
       orient="auto"
       inkscape:stockid="DotM">
      <path
         transform="matrix(0.4,0,0,0.4,2.96,0.4)"
         style="fill:#ffffff;fill-opacity:1;fill-rule:evenodd;stroke:#ffffff;stroke-width:1.00000003pt;stroke-opacity:1"
         d="m -2.5,-1 c 0,2.76 -2.24,5 -5,5 -2.76,0 -5,-2.24 -5,-5 0,-2.76 2.24,-5 5,-5 2.76,0 5,2.24 5,5 z"
         id="path10435"
         inkscape:connector-curvature="0" />
    </marker>
    <marker
       inkscape:isstock="true"
       style="overflow:visible"
       id="marker9267"
       refX="0"
       refY="0"
       orient="auto"
       inkscape:stockid="DotM">
      <path
         transform="matrix(0.4,0,0,0.4,2.96,0.4)"
         style="fill:#ffffff;fill-opacity:1;fill-rule:evenodd;stroke:#ffffff;stroke-width:1.00000003pt;stroke-opacity:1"
         d="m -2.5,-1 c 0,2.76 -2.24,5 -5,5 -2.76,0 -5,-2.24 -5,-5 0,-2.76 2.24,-5 5,-5 2.76,0 5,2.24 5,5 z"
         id="path9265"
         inkscape:connector-curvature="0" />
    </marker>
    <marker
       inkscape:isstock="true"
       style="overflow:visible"
       id="marker9171"
       refX="0"
       refY="0"
       orient="auto"
       inkscape:stockid="DotM">
      <path
         transform="matrix(0.4,0,0,0.4,2.96,0.4)"
         style="fill:#ffffff;fill-opacity:1;fill-rule:evenodd;stroke:#ffffff;stroke-width:1.00000003pt;stroke-opacity:1"
         d="m -2.5,-1 c 0,2.76 -2.24,5 -5,5 -2.76,0 -5,-2.24 -5,-5 0,-2.76 2.24,-5 5,-5 2.76,0 5,2.24 5,5 z"
         id="path9169"
         inkscape:connector-curvature="0" />
    </marker>
    <marker
       inkscape:isstock="true"
       style="overflow:visible"
       id="marker9068"
       refX="0"
       refY="0"
       orient="auto"
       inkscape:stockid="DotM">
      <path
         transform="matrix(0.4,0,0,0.4,2.96,0.4)"
         style="fill:#ffffff;fill-opacity:1;fill-rule:evenodd;stroke:#ffffff;stroke-width:1.00000003pt;stroke-opacity:1"
         d="m -2.5,-1 c 0,2.76 -2.24,5 -5,5 -2.76,0 -5,-2.24 -5,-5 0,-2.76 2.24,-5 5,-5 2.76,0 5,2.24 5,5 z"
         id="path9066"
         inkscape:connector-curvature="0" />
    </marker>
    <marker
       inkscape:isstock="true"
       style="overflow:visible"
       id="marker8954"
       refX="0"
       refY="0"
       orient="auto"
       inkscape:stockid="DotM">
      <path
         transform="matrix(0.4,0,0,0.4,2.96,0.4)"
         style="fill:#ffffff;fill-opacity:1;fill-rule:evenodd;stroke:#ffffff;stroke-width:1.00000003pt;stroke-opacity:1"
         d="m -2.5,-1 c 0,2.76 -2.24,5 -5,5 -2.76,0 -5,-2.24 -5,-5 0,-2.76 2.24,-5 5,-5 2.76,0 5,2.24 5,5 z"
         id="path8952"
         inkscape:connector-curvature="0" />
    </marker>
    <marker
       inkscape:isstock="true"
       style="overflow:visible"
       id="marker4105"
       refX="0"
       refY="0"
       orient="auto"
       inkscape:stockid="DotM">
      <path
         transform="matrix(0.4,0,0,0.4,2.96,0.4)"
         style="fill:#ffffff;fill-opacity:1;fill-rule:evenodd;stroke:#ffffff;stroke-width:1.00000003pt;stroke-opacity:1"
         d="m -2.5,-1 c 0,2.76 -2.24,5 -5,5 -2.76,0 -5,-2.24 -5,-5 0,-2.76 2.24,-5 5,-5 2.76,0 5,2.24 5,5 z"
         id="path4103"
         inkscape:connector-curvature="0" />
    </marker>
    <marker
       inkscape:isstock="true"
       style="overflow:visible"
       id="marker3750"
       refX="0"
       refY="0"
       orient="auto"
       inkscape:stockid="DotM">
      <path
         transform="matrix(0.4,0,0,0.4,2.96,0.4)"
         style="fill:#ffffff;fill-opacity:1;fill-rule:evenodd;stroke:#ffffff;stroke-width:1.00000003pt;stroke-opacity:1"
         d="m -2.5,-1 c 0,2.76 -2.24,5 -5,5 -2.76,0 -5,-2.24 -5,-5 0,-2.76 2.24,-5 5,-5 2.76,0 5,2.24 5,5 z"
         id="path3748"
         inkscape:connector-curvature="0" />
    </marker>
    <marker
       inkscape:stockid="DotM"
       orient="auto"
       refY="0"
       refX="0"
       id="DotM"
       style="overflow:visible"
       inkscape:isstock="true"
       inkscape:collect="always">
      <path
         id="path887"
         d="m -2.5,-1 c 0,2.76 -2.24,5 -5,5 -2.76,0 -5,-2.24 -5,-5 0,-2.76 2.24,-5 5,-5 2.76,0 5,2.24 5,5 z"
         style="fill:#ffffff;fill-opacity:1;fill-rule:evenodd;stroke:#ffffff;stroke-width:1.00000003pt;stroke-opacity:1"
         transform="matrix(0.4,0,0,0.4,2.96,0.4)"
         inkscape:connector-curvature="0" />
    </marker>
    <marker
       inkscape:stockid="DotM"
       orient="auto"
       refY="0"
       refX="0"
       id="marker2438"
       style="overflow:visible"
       inkscape:isstock="true">
      <path
         id="path2436"
         d="m -2.5,-1 c 0,2.76 -2.24,5 -5,5 -2.76,0 -5,-2.24 -5,-5 0,-2.76 2.24,-5 5,-5 2.76,0 5,2.24 5,5 z"
         style="fill:#ffffff;fill-opacity:1;fill-rule:evenodd;stroke:#ffffff;stroke-width:1.00000003pt;stroke-opacity:1"
         transform="matrix(0.4,0,0,0.4,2.96,0.4)"
         inkscape:connector-curvature="0" />
    </marker>
    <marker
       inkscape:stockid="DotS"
       orient="auto"
       refY="0"
       refX="0"
       id="marker1133"
       style="overflow:visible"
       inkscape:isstock="true">
      <path
         id="path1131"
         d="m -2.5,-1 c 0,2.76 -2.24,5 -5,5 -2.76,0 -5,-2.24 -5,-5 0,-2.76 2.24,-5 5,-5 2.76,0 5,2.24 5,5 z"
         style="fill:#ff4141;fill-opacity:1;fill-rule:evenodd;stroke:#ff4141;stroke-width:1.00000003pt;stroke-opacity:1"
         transform="matrix(0.2,0,0,0.2,1.48,0.2)"
         inkscape:connector-curvature="0" />
    </marker>
    <marker
       inkscape:stockid="DotS"
       orient="auto"
       refY="0"
       refX="0"
       id="DotS"
       style="overflow:visible"
       inkscape:isstock="true">
      <path
         id="path890"
         d="m -2.5,-1 c 0,2.76 -2.24,5 -5,5 -2.76,0 -5,-2.24 -5,-5 0,-2.76 2.24,-5 5,-5 2.76,0 5,2.24 5,5 z"
         style="fill:#ff4141;fill-opacity:1;fill-rule:evenodd;stroke:#ff4141;stroke-width:1.00000003pt;stroke-opacity:1"
         transform="matrix(0.2,0,0,0.2,1.48,0.2)"
         inkscape:connector-curvature="0" />
    </marker>
    <marker
       inkscape:stockid="DotL"
       orient="auto"
       refY="0"
       refX="0"
       id="DotL"
       style="overflow:visible"
       inkscape:isstock="true">
      <path
         id="path884"
         d="m -2.5,-1 c 0,2.76 -2.24,5 -5,5 -2.76,0 -5,-2.24 -5,-5 0,-2.76 2.24,-5 5,-5 2.76,0 5,2.24 5,5 z"
         style="fill:#ff4141;fill-opacity:1;fill-rule:evenodd;stroke:#ff4141;stroke-width:1.00000003pt;stroke-opacity:1"
         transform="matrix(0.8,0,0,0.8,5.92,0.8)"
         inkscape:connector-curvature="0" />
    </marker>
    <marker
       inkscape:stockid="DotM"
       orient="auto"
       refY="0"
       refX="0"
       id="DotM-7"
       style="overflow:visible"
       inkscape:isstock="true">
      <path
         inkscape:connector-curvature="0"
         id="path887-6"
         d="m -2.5,-1 c 0,2.76 -2.24,5 -5,5 -2.76,0 -5,-2.24 -5,-5 0,-2.76 2.24,-5 5,-5 2.76,0 5,2.24 5,5 z"
         style="fill:#ffffff;fill-opacity:1;fill-rule:evenodd;stroke:#ffffff;stroke-width:1.00000003pt;stroke-opacity:1"
         transform="matrix(0.4,0,0,0.4,2.96,0.4)" />
    </marker>
    <marker
       inkscape:stockid="DotM"
       orient="auto"
       refY="0"
       refX="0"
       id="DotM-1"
       style="overflow:visible"
       inkscape:isstock="true">
      <path
         inkscape:connector-curvature="0"
         id="path887-1"
         d="m -2.5,-1 c 0,2.76 -2.24,5 -5,5 -2.76,0 -5,-2.24 -5,-5 0,-2.76 2.24,-5 5,-5 2.76,0 5,2.24 5,5 z"
         style="fill:#ffffff;fill-opacity:1;fill-rule:evenodd;stroke:#ffffff;stroke-width:1.00000003pt;stroke-opacity:1"
         transform="matrix(0.4,0,0,0.4,2.96,0.4)" />
    </marker>
    <marker
       inkscape:stockid="DotM"
       orient="auto"
       refY="0"
       refX="0"
       id="DotM-3"
       style="overflow:visible"
       inkscape:isstock="true">
      <path
         inkscape:connector-curvature="0"
         id="path887-3"
         d="m -2.5,-1 c 0,2.76 -2.24,5 -5,5 -2.76,0 -5,-2.24 -5,-5 0,-2.76 2.24,-5 5,-5 2.76,0 5,2.24 5,5 z"
         style="fill:#ffffff;fill-opacity:1;fill-rule:evenodd;stroke:#ffffff;stroke-width:1.00000003pt;stroke-opacity:1"
         transform="matrix(0.4,0,0,0.4,2.96,0.4)" />
    </marker>
  </defs>
  <sodipodi:namedview
     id="base"
     pagecolor="#ffffff"
     bordercolor="#666666"
     borderopacity="1.0"
     inkscape:pageopacity="0.0"
     inkscape:pageshadow="2"
     inkscape:zoom="0.98994949"
     inkscape:cx="239.14345"
     inkscape:cy="164.75569"
     inkscape:document-units="mm"
     inkscape:current-layer="layer1"
     showgrid="false"
     fit-margin-top="0"
     fit-margin-left="0"
     fit-margin-right="0"
     fit-margin-bottom="0"
     inkscape:window-width="1920"
     inkscape:window-height="1017"
     inkscape:window-x="1912"
     inkscape:window-y="-8"
     inkscape:window-maximized="1" />
  <metadata
     id="metadata5">
    <rdf:RDF>
      <cc:Work
         rdf:about="">
        <dc:format>image/svg+xml</dc:format>
        <dc:type
           rdf:resource="http://purl.org/dc/dcmitype/StillImage" />
        <dc:title></dc:title>
      </cc:Work>
    </rdf:RDF>
  </metadata>
  <g
     inkscape:label="Ebene 1"
     inkscape:groupmode="layer"
     id="layer1"
     transform="translate(-48.725898,-78.874702)">
    <circle
       style="opacity:1;vector-effect:none;fill:#0b80cf;fill-opacity:1;stroke:#ffffff;stroke-width:2.62842679;stroke-miterlimit:4;stroke-dasharray:none;stroke-opacity:1"
       id="path1592"
       cx="109.23512"
       cy="139.38393"
       r="59.195011" />
    <path
       style="opacity:1;vector-effect:none;fill:none;fill-opacity:1;stroke:#ffffff;stroke-width:4.086;stroke-miterlimit:4;stroke-dasharray:none;stroke-opacity:1;marker-start:url(#DotM)"
       id="path1594"
       transform="rotate(73.39552)"
       sodipodi:type="arc"
       sodipodi:cx="164.78703"
       sodipodi:cy="-64.849236"
       sodipodi:rx="45.948578"
       sodipodi:ry="45.948578"
       sodipodi:start="0.28797933"
       sodipodi:end="5.8084558"
       d="m 208.84344,-51.799134 a 45.948578,45.948578 0 0 1 -48.52025,32.681134 45.948578,45.948578 0 0 1 -41.28457,-41.447015 45.948578,45.948578 0 0 1 32.87142,-48.391535 45.948578,45.948578 0 0 1 53.74441,23.104317"
       sodipodi:open="true" />
    <circle
       style="opacity:1;vector-effect:none;fill:#0b80cf;fill-opacity:1;stroke:none;stroke-width:1.34210527;stroke-linecap:butt;stroke-linejoin:miter;stroke-miterlimit:4;stroke-dasharray:none;stroke-dashoffset:0;stroke-opacity:1"
       id="path10433"
       cx="109.39963"
       cy="185.6512"
       r="4.5435815" />
    <circle
       r="4.5435815"
       cy="119.69435"
       cx="107.32076"
       id="circle10571"
       style="opacity:1;vector-effect:none;fill:#0b80cf;fill-opacity:1;stroke:none;stroke-width:1.34210527;stroke-linecap:butt;stroke-linejoin:miter;stroke-miterlimit:4;stroke-dasharray:none;stroke-dashoffset:0;stroke-opacity:1" />
    <circle
       style="opacity:1;vector-effect:none;fill:#0b80cf;fill-opacity:1;stroke:none;stroke-width:1.34210527;stroke-linecap:butt;stroke-linejoin:miter;stroke-miterlimit:4;stroke-dasharray:none;stroke-dashoffset:0;stroke-opacity:1"
       id="circle10573"
       cx="136.04695"
       cy="118.37144"
       r="4.5435815" />
    <g
       aria-label="UB"
       style="font-style:normal;font-variant:normal;font-weight:bold;font-stretch:normal;font-size:25.52370644px;line-height:1.25;font-family:Roboto;-inkscape-font-specification:'Roboto Bold';letter-spacing:0px;word-spacing:0px;fill:#ffffff;fill-opacity:1;stroke:none;stroke-width:0.6380927"
       id="text11701">
      <path
         d="m 120.53077,140.35309 q 0,3.43972 -2.09374,5.27174 -2.09375,1.83203 -6.16906,1.83203 -4.07532,0 -6.16906,-1.83203 -2.08128,-1.83202 -2.08128,-5.25928 v -11.85207 h 4.81062 v 11.57789 q 0,1.93173 0.81008,2.8789 0.81007,0.94717 2.62964,0.94717 1.79463,0 2.61717,-0.90978 0.83501,-0.90979 0.83501,-2.91629 v -11.57789 h 4.81062 z"
         style="fill:#ffffff;fill-opacity:1;stroke-width:0.6380927"
         id="path16832"
         inkscape:connector-curvature="0" />
      <path
         d="m 140.8949,141.3875 q 0,1.34597 -0.54836,2.40531 -0.5359,1.05933 -1.48307,1.75725 -1.09672,0.82254 -2.41777,1.17149 -1.30859,0.34896 -3.32756,0.34896 h -8.10078 v -18.55703 h 7.20346 q 2.2433,0 3.27771,0.14955 1.04687,0.14956 2.06881,0.66053 1.05934,0.5359 1.57031,1.44568 0.52344,0.89732 0.52344,2.05635 0,1.34598 -0.71038,2.38039 -0.71038,1.02194 -2.0065,1.59523 v 0.0997 q 1.81956,0.36142 2.87889,1.49553 1.0718,1.13411 1.0718,2.99106 z m -6.13167,-7.6272 q 0,-0.46112 -0.2368,-0.92225 -0.22433,-0.46112 -0.81008,-0.68545 -0.52343,-0.1994 -1.30858,-0.21186 -0.77269,-0.0249 -2.18098,-0.0249 h -0.44866 v 3.92577 h 0.74776 q 1.13411,0 1.93173,-0.0374 0.79761,-0.0374 1.25873,-0.24926 0.64807,-0.28664 0.84747,-0.7353 0.19941,-0.46112 0.19941,-1.05933 z m 1.17149,7.55242 q 0,-0.88485 -0.34895,-1.35844 -0.3365,-0.48604 -1.15904,-0.72284 -0.56082,-0.16201 -1.54538,-0.17448 -0.98456,-0.0125 -2.05635,-0.0125 h -1.04687 v 4.62368 h 0.34895 q 2.01897,0 2.89136,-0.0125 0.87239,-0.0125 1.6077,-0.32403 0.74776,-0.31157 1.02194,-0.82254 0.28664,-0.52344 0.28664,-1.19643 z"
         style="fill:#ffffff;fill-opacity:1;stroke-width:0.6380927"
         id="path16834"
         inkscape:connector-curvature="0" />
    </g>
    <path
       sodipodi:type="inkscape:offset"
       inkscape:radius="0"
       inkscape:original="M 110.80469 106.64844 C 106.2429 106.64844 102.03012 107.37323 98.166016 108.82227 C 94.328745 110.27131 91.108764 112.3239 88.505859 114.98047 C 85.795619 117.74438 83.728846 121.05777 82.306641 124.92188 C 80.884435 128.78598 80.173828 133.09412 80.173828 137.84375 C 80.173828 142.94222 80.910845 147.43523 82.386719 151.32617 C 83.889426 155.21711 85.996791 158.46546 88.707031 161.06836 C 91.417272 163.67126 94.649481 165.63044 98.40625 166.94531 C 102.18985 168.26018 106.30922 168.91602 110.76367 168.91602 C 113.76909 168.91602 116.13028 168.76978 117.84766 168.47461 C 119.56504 168.17943 121.40439 167.74906 123.36328 167.18555 C 124.86599 166.7562 126.30138 166.2466 127.66992 165.65625 C 129.03846 165.0659 130.47385 164.43452 131.97656 163.76367 L 131.97656 149.43555 L 130.36523 149.43555 C 129.64071 150.07956 128.71492 150.84299 127.58789 151.72852 C 126.46086 152.61404 125.24065 153.44642 123.92578 154.22461 C 122.36941 155.19064 120.666 155.95602 118.81445 156.51953 C 116.98974 157.08305 115.13815 157.36523 113.25977 157.36523 C 111.30088 157.36523 109.31529 157.05664 107.30273 156.43945 C 105.29018 155.79544 103.465 154.73564 101.82812 153.25977 C 100.21808 151.81073 98.876097 149.82514 97.802734 147.30273 C 96.756206 144.78033 96.232422 141.63958 96.232422 137.88281 C 96.232422 134.28705 96.715614 131.22748 97.681641 128.70508 C 98.674501 126.18268 99.963665 124.15649 101.54688 122.62695 C 103.21059 121.04374 105.02158 119.91695 106.98047 119.24609 C 108.93936 118.54841 111.00613 118.20117 113.17969 118.20117 C 115.13857 118.20117 116.97598 118.49559 118.69336 119.08594 C 120.41074 119.67629 122.00655 120.40108 123.48242 121.25977 C 124.93146 122.11846 126.22063 122.98948 127.34766 123.875 C 128.50152 124.76052 129.45372 125.5259 130.20508 126.16992 L 131.97656 126.16992 L 131.97656 111.63867 C 130.87637 111.10199 129.5872 110.52539 128.11133 109.9082 C 126.66229 109.26419 125.04007 108.68758 123.24219 108.17773 C 121.52481 107.72156 119.64681 107.36014 117.60742 107.0918 C 115.59487 106.79662 113.32709 106.64844 110.80469 106.64844 z "
       xlink:href="#text11697"
       style="font-style:normal;font-variant:normal;font-weight:bold;font-stretch:normal;font-size:34.34759903px;line-height:1.25;font-family:Roboto;-inkscape-font-specification:'Roboto Bold';letter-spacing:0px;word-spacing:0px;fill:#ffffff;fill-opacity:1;stroke:none;stroke-width:0.85868996"
       id="path16830"
       inkscape:href="#text11697"
       d="m 110.80469,106.64844 c -4.56179,0 -8.77457,0.72479 -12.638674,2.17383 -3.837271,1.44904 -7.057252,3.50163 -9.660157,6.1582 -2.71024,2.76391 -4.777013,6.0773 -6.199218,9.94141 -1.422206,3.8641 -2.132813,8.17224 -2.132813,12.92187 0,5.09847 0.737017,9.59148 2.212891,13.48242 1.502707,3.89094 3.610072,7.13929 6.320312,9.74219 2.710241,2.6029 5.94245,4.56208 9.699219,5.87695 3.7836,1.31487 7.90297,1.97071 12.35742,1.97071 3.00542,0 5.36661,-0.14624 7.08399,-0.44141 1.71738,-0.29518 3.55673,-0.72555 5.51562,-1.28906 1.50271,-0.42935 2.9381,-0.93895 4.30664,-1.5293 1.36854,-0.59035 2.80393,-1.22173 4.30664,-1.89258 v -14.32812 h -1.61133 c -0.72452,0.64401 -1.65031,1.40744 -2.77734,2.29297 -1.12703,0.88552 -2.34724,1.7179 -3.66211,2.49609 -1.55637,0.96603 -3.25978,1.73141 -5.11133,2.29492 -1.82471,0.56352 -3.6763,0.8457 -5.55468,0.8457 -1.95889,0 -3.94448,-0.30859 -5.95704,-0.92578 -2.01255,-0.64401 -3.83773,-1.70381 -5.47461,-3.17968 -1.61004,-1.44904 -2.952023,-3.43463 -4.025386,-5.95704 -1.046528,-2.5224 -1.570312,-5.66315 -1.570312,-9.41992 0,-3.59576 0.483192,-6.65533 1.449219,-9.17773 0.99286,-2.5224 2.282024,-4.54859 3.865239,-6.07813 1.66371,-1.58321 3.4747,-2.71 5.43359,-3.38086 1.95889,-0.69768 4.02566,-1.04492 6.19922,-1.04492 1.95888,0 3.79629,0.29442 5.51367,0.88477 1.71738,0.59035 3.31319,1.31514 4.78906,2.17383 1.44904,0.85869 2.73821,1.72971 3.86524,2.61523 1.15386,0.88552 2.10606,1.6509 2.85742,2.29492 h 1.77148 v -14.53125 c -1.10019,-0.53668 -2.38936,-1.11328 -3.86523,-1.73047 -1.44904,-0.64401 -3.07126,-1.22062 -4.86914,-1.73047 -1.71738,-0.45617 -3.59538,-0.81759 -5.63477,-1.08593 -2.01255,-0.29518 -4.28033,-0.44336 -6.80273,-0.44336 z" />
    <g
       aria-label="C"
       style="font-style:normal;font-variant:normal;font-weight:bold;font-stretch:normal;font-size:34.34759903px;line-height:1.25;font-family:Roboto;-inkscape-font-specification:'Roboto Bold';letter-spacing:0px;word-spacing:0px;fill:#ffffff;fill-opacity:1;stroke:none;stroke-width:0.85868996"
       id="text11697">
      <path
         d="m 110.76387,168.91664 q -6.68168,0 -12.357085,-1.9723 -5.635154,-1.97231 -9.700514,-5.87666 -4.065361,-3.90436 -6.319422,-9.74077 -2.21381,-5.83641 -2.21381,-13.48411 0,-7.12445 2.133308,-12.92061 2.133308,-5.79615 6.198668,-9.94202 3.904357,-3.98485 9.660263,-6.15841 5.796162,-2.17356 12.638842,-2.17356 3.7836,0 6.80244,0.44276 3.05908,0.40251 5.63515,1.08678 2.69682,0.76477 4.87038,1.7308 2.21381,0.92577 3.86411,1.73079 v 14.53065 h -1.77105 q -1.12703,-0.96603 -2.85783,-2.29431 -1.69054,-1.32829 -3.8641,-2.61633 -2.21381,-1.28803 -4.78988,-2.17355 -2.57607,-0.88553 -5.5144,-0.88553 -3.26034,0 -6.19867,1.04653 -2.93833,1.00628 -5.4339,3.38109 -2.374815,2.29431 -3.864105,6.07792 -1.449039,3.7836 -1.449039,9.17725 0,5.63515 1.569792,9.41875 1.610044,3.78361 4.025112,5.95716 2.45531,2.21382 5.47415,3.17984 3.01883,0.92578 5.95716,0.92578 2.81758,0 5.55465,-0.84528 2.77733,-0.84527 5.11189,-2.29431 1.9723,-1.16728 3.66285,-2.49557 1.69054,-1.32828 2.77732,-2.29431 h 1.61005 v 14.32939 q -2.25406,1.00628 -4.30687,1.8918 -2.05281,0.88553 -4.30687,1.52954 -2.93833,0.84528 -5.5144,1.28804 -2.57607,0.44276 -7.08419,0.44276 z"
         style="font-size:82.43424225px;fill:#ffffff;fill-opacity:1;stroke-width:0.85868996"
         id="path16837"
         inkscape:connector-curvature="0" />
    </g>
  </g>
</svg>
