<?xml version="1.0" encoding="UTF-8" standalone="no"?>
<!-- Created with Inkscape (http://www.inkscape.org/) -->

<svg
   xmlns:dc="http://purl.org/dc/elements/1.1/"
   xmlns:cc="http://creativecommons.org/ns#"
   xmlns:rdf="http://www.w3.org/1999/02/22-rdf-syntax-ns#"
   xmlns:svg="http://www.w3.org/2000/svg"
   xmlns="http://www.w3.org/2000/svg"
   xmlns:sodipodi="http://sodipodi.sourceforge.net/DTD/sodipodi-0.dtd"
   xmlns:inkscape="http://www.inkscape.org/namespaces/inkscape"
   width="27.408773mm"
   height="9.1946001mm"
   viewBox="0 0 27.408774 9.1946"
   version="1.1"
   id="svg8"
   sodipodi:docname="ubc.svg"
   inkscape:version="0.92.4 (5da689c313, 2019-01-14)">
  <defs
     id="defs2">
    <clipPath
       clipPathUnits="userSpaceOnUse"
       id="clipPath906">
      <path
         d="M 0,595.28 H 841.89 V 0 H 0 Z"
         id="path904"
         inkscape:connector-curvature="0" />
    </clipPath>
    <clipPath
       clipPathUnits="userSpaceOnUse"
       id="clipPath1029">
      <path
         d="M 0,595.28 H 841.89 V 0 H 0 Z"
         id="path1027"
         inkscape:connector-curvature="0" />
    </clipPath>
    <clipPath
       clipPathUnits="userSpaceOnUse"
       id="clipPath1037">
      <path
         d="M 72.5776,381.613 H 750.212 V 356.267 H 72.5776 Z"
         id="path1035"
         inkscape:connector-curvature="0" />
    </clipPath>
    <clipPath
       clipPathUnits="userSpaceOnUse"
       id="clipPath1057">
      <path
         d="M 72.5776,348.28 H 750.212 V 322.934 H 72.5776 Z"
         id="path1055"
         inkscape:connector-curvature="0" />
    </clipPath>
    <clipPath
       clipPathUnits="userSpaceOnUse"
       id="clipPath1089">
      <path
         d="M 0,595.28 H 841.89 V 0 H 0 Z"
         id="path1087"
         inkscape:connector-curvature="0" />
    </clipPath>
  </defs>
  <sodipodi:namedview
     id="base"
     pagecolor="#ffffff"
     bordercolor="#666666"
     borderopacity="1.0"
     inkscape:pageopacity="0.0"
     inkscape:pageshadow="2"
     inkscape:zoom="3.959798"
     inkscape:cx="100.27836"
     inkscape:cy="-8.3124612"
     inkscape:document-units="mm"
     inkscape:current-layer="layer1"
     showgrid="false"
     inkscape:window-width="1920"
     inkscape:window-height="1017"
     inkscape:window-x="1912"
     inkscape:window-y="-8"
     inkscape:window-maximized="1"
     fit-margin-top="0"
     fit-margin-left="0"
     fit-margin-right="0"
     fit-margin-bottom="0" />
  <metadata
     id="metadata5">
    <rdf:RDF>
      <cc:Work
         rdf:about="">
        <dc:format>image/svg+xml</dc:format>
        <dc:type
           rdf:resource="http://purl.org/dc/dcmitype/StillImage" />
        <dc:title></dc:title>
      </cc:Work>
    </rdf:RDF>
  </metadata>
  <g
     inkscape:label="Ebene 1"
     inkscape:groupmode="layer"
     id="layer1"
     transform="translate(-97.372106,-115.17023)">
    <g
       id="g1107">
      <path
         style="fill:#58585a;fill-opacity:1;stroke-width:0.26458001"
         inkscape:connector-curvature="0"
         d="m 104.31743,120.61933 q 0,3.7455 -3.5471,3.7455 -3.398224,0 -3.398224,-3.6029 v -5.4384 h 1.4759 v 5.1346 q 0,2.6169 2.034024,2.6169 1.9596,0 1.9596,-2.5239 v -5.2276 h 1.4759 z"
         id="path817" />
      <path
         style="fill:#58585a;fill-opacity:1;stroke-width:0.26458001"
         inkscape:connector-curvature="0"
         d="m 105.10929,124.21933 v -8.8925 h 2.8215 q 1.2898,0 2.0402,0.56431 0.75654,0.56431 0.75654,1.4697 0,0.75654 -0.42788,1.3146 -0.42788,0.5581 -1.1844,0.79375 v 0.0248 q 0.91777,0.10542 1.4635,0.68213 0.55191,0.57051 0.55191,1.4883 0,1.141 -0.89917,1.848 -0.89917,0.707 -2.2696,0.70693 z m 1.4697,-7.708 v 2.5301 h 0.95498 q 0.76894,0 1.203,-0.35966 0.44028,-0.36587 0.44028,-1.0294 0,-1.141 -1.5255,-1.141 z m 0,3.7145 v 2.8153 h 1.2588 q 0.82476,0 1.2712,-0.37827 0.45268,-0.38447 0.45268,-1.0542 0,-1.3829 -1.9162,-1.3829 z"
         id="path819" />
      <path
         id="path821"
         d="m 118.35717,123.83933 q -1.0046,0.5209 -2.4991,0.5209 -1.9348,0 -3.1006,-1.2216 -1.1658,-1.2216 -1.1658,-3.206 0,-2.1332 1.3084,-3.4478 1.3146,-1.3146 3.3176,-1.3146 1.2898,0 2.1394,0.36587 v 1.4635 q -0.89917,-0.5333 -1.9844,-0.5333 -1.4449,0 -2.344,0.92397 -0.89297,0.92398 -0.89297,2.4681 0,1.4697 0.83716,2.344 0.83716,0.86817 2.2014,0.86817 1.2588,0 2.1828,-0.59531 z"
         inkscape:connector-curvature="0"
         style="fill:#2089c6;stroke-width:0.26458001" />
      <path
         id="path823"
         d="m 114.41494,121.46707 v -3.23003 h 0.89198 q 1.70735,0 1.70735,1.57445 0,0.74784 -0.47526,1.20278 -0.47302,0.45274 -1.26817,0.45274 z m 0.37841,-2.88767 v 2.54525 h 0.48203 q 0.63521,0 0.9888,-0.34012 0.35364,-0.34012 0.35364,-0.96408 0,-1.24112 -1.31993,-1.24112 z"
         inkscape:connector-curvature="0"
         style="fill:#2089c6;stroke-width:0.26458001" />
      <path
         id="path825"
         d="m 120.04369,121.46707 h -0.41895 l -0.34237,-0.90548 h -1.36951 l -0.3221,0.90548 h -0.42121 l 1.23886,-3.23003 h 0.39193 z m -0.8852,-1.24558 -0.5068,-1.37622 q -0.0248,-0.0676 -0.0496,-0.21624 h -0.009 q -0.0225,0.13741 -0.0518,0.21624 l -0.5023,1.37622 z"
         inkscape:connector-curvature="0"
         style="fill:#2089c6;stroke-width:0.26458001" />
      <path
         id="path827"
         d="m 122.09429,118.57839 h -0.93251 v 2.88767 h -0.37842 v -2.88767 h -0.93026 v -0.34237 h 2.24116 z"
         inkscape:connector-curvature="0"
         style="fill:#2089c6;stroke-width:0.26458001" />
      <path
         id="path829"
         d="m 124.78088,121.46707 h -0.41895 l -0.34238,-0.90548 h -1.3695 l -0.32211,0.90548 h -0.4212 l 1.23886,-3.23003 h 0.39193 z m -0.88521,-1.24558 -0.5068,-1.37622 q -0.0248,-0.0676 -0.0496,-0.21624 h -0.009 q -0.0225,0.13741 -0.0518,0.21624 l -0.50231,1.37622 z"
         inkscape:connector-curvature="0"
         style="fill:#2089c6;stroke-width:0.26458001" />
    </g>
  </g>
</svg>
